<svg xmlns="http://www.w3.org/2000/svg" xmlns:xlink="http://www.w3.org/1999/xlink" contentStyleType="text/css" height="481px" preserveAspectRatio="none" style="width:588px;height:481px;background:#FFFFFF;" version="1.1" viewBox="0 0 588 481" width="588px" zoomAndPan="magnify"><defs/><g><g id="elem_Customer"><rect fill="#F1F1F1" height="93.4844" style="stroke:#181818;stroke-width:0.5;" width="161.7344" x="20.36" y="7"/><text fill="#000000" font-family="sans-serif" font-size="14" lengthAdjust="spacing" textLength="101.4932" x="50.4806" y="21.9951">&#1055;&#1086;&#1082;&#1091;&#1087;&#1072;&#1090;&#1077;&#1083;&#1100;-0</text><line style="stroke:#181818;stroke-width:0.5;" x1="21.36" x2="181.0944" y1="27.2969" y2="27.2969"/><ellipse cx="31.36" cy="40.9453" fill="none" rx="3" ry="3" style="stroke:#038048;stroke-width:1.0;"/><text fill="#000000" font-family="sans-serif" font-size="14" lengthAdjust="spacing" textLength="40.1953" x="40.36" y="44.292">id: int</text><ellipse cx="31.36" cy="57.2422" fill="none" rx="3" ry="3" style="stroke:#038048;stroke-width:1.0;"/><text fill="#000000" font-family="sans-serif" font-size="14" lengthAdjust="spacing" textLength="65.126" x="40.36" y="60.5889">&#1080;&#1084;&#1103;: text</text><ellipse cx="31.36" cy="73.5391" fill="none" rx="3" ry="3" style="stroke:#038048;stroke-width:1.0;"/><text fill="#000000" font-family="sans-serif" font-size="14" lengthAdjust="spacing" textLength="75.6533" x="40.36" y="76.8857">email: text</text><ellipse cx="31.36" cy="89.8359" fill="#84BE84" rx="3" ry="3" style="stroke:#038048;stroke-width:1.0;"/><text fill="#000000" font-family="sans-serif" font-size="14" lengthAdjust="spacing" textLength="135.7344" x="40.36" y="93.1826">createOrder(Order)</text></g><g id="elem_Product"><rect fill="#F1F1F1" height="93.4844" style="stroke:#181818;stroke-width:0.5;" width="170.6963" x="309.88" y="185.64"/><text fill="#000000" font-family="sans-serif" font-size="14" lengthAdjust="spacing" textLength="42.834" x="373.8112" y="200.6351">&#1058;&#1086;&#1074;&#1072;&#1088;</text><line style="stroke:#181818;stroke-width:0.5;" x1="310.88" x2="479.5763" y1="205.9369" y2="205.9369"/><ellipse cx="320.88" cy="219.5853" fill="none" rx="3" ry="3" style="stroke:#038048;stroke-width:1.0;"/><text fill="#000000" font-family="sans-serif" font-size="14" lengthAdjust="spacing" textLength="40.1953" x="329.88" y="222.932">id: int</text><ellipse cx="320.88" cy="235.8822" fill="none" rx="3" ry="3" style="stroke:#038048;stroke-width:1.0;"/><text fill="#000000" font-family="sans-serif" font-size="14" lengthAdjust="spacing" textLength="105.916" x="329.88" y="239.2289">&#1085;&#1072;&#1079;&#1074;&#1072;&#1085;&#1080;&#1077;: text</text><ellipse cx="320.88" cy="252.1791" fill="none" rx="3" ry="3" style="stroke:#038048;stroke-width:1.0;"/><text fill="#000000" font-family="sans-serif" font-size="14" lengthAdjust="spacing" textLength="71.8799" x="329.88" y="255.5257">&#1094;&#1077;&#1085;&#1072;: real</text><ellipse cx="320.88" cy="268.4759" fill="#84BE84" rx="3" ry="3" style="stroke:#038048;stroke-width:1.0;"/><text fill="#000000" font-family="sans-serif" font-size="14" lengthAdjust="spacing" textLength="144.6963" x="329.88" y="271.8226">addProduct(Product)</text></g><g id="elem_Order"><rect fill="#F1F1F1" height="109.7813" style="stroke:#181818;stroke-width:0.5;" width="188.4492" x="7" y="177.49"/><text fill="#000000" font-family="sans-serif" font-size="14" lengthAdjust="spacing" textLength="42.0342" x="80.2075" y="192.4851">&#1047;&#1072;&#1082;&#1072;&#1079;</text><line style="stroke:#181818;stroke-width:0.5;" x1="8" x2="194.4492" y1="197.7869" y2="197.7869"/><ellipse cx="18" cy="211.4353" fill="none" rx="3" ry="3" style="stroke:#038048;stroke-width:1.0;"/><text fill="#000000" font-family="sans-serif" font-size="14" lengthAdjust="spacing" textLength="40.1953" x="27" y="214.782">id: int</text><ellipse cx="18" cy="227.7322" fill="none" rx="3" ry="3" style="stroke:#038048;stroke-width:1.0;"/><text fill="#000000" font-family="sans-serif" font-size="14" lengthAdjust="spacing" textLength="107.3584" x="27" y="231.0789">&#1076;&#1072;&#1090;&#1072;: datetime</text><ellipse cx="18" cy="244.0291" fill="none" rx="3" ry="3" style="stroke:#038048;stroke-width:1.0;"/><text fill="#000000" font-family="sans-serif" font-size="14" lengthAdjust="spacing" textLength="85.6133" x="27" y="247.3757">&#1089;&#1090;&#1072;&#1090;&#1091;&#1089;: text</text><ellipse cx="18" cy="260.3259" fill="#84BE84" rx="3" ry="3" style="stroke:#038048;stroke-width:1.0;"/><text fill="#000000" font-family="sans-serif" font-size="14" lengthAdjust="spacing" textLength="144.6963" x="27" y="263.6726">addProduct(Product)</text><ellipse cx="18" cy="276.6228" fill="#84BE84" rx="3" ry="3" style="stroke:#038048;stroke-width:1.0;"/><text fill="#000000" font-family="sans-serif" font-size="14" lengthAdjust="spacing" textLength="162.4492" x="27" y="279.9695">deleteProduct(Product)</text></g><g id="elem_Provider"><rect fill="#F1F1F1" height="77.1875" style="stroke:#181818;stroke-width:0.5;" width="133.6182" x="328.42" y="15.15"/><text fill="#000000" font-family="sans-serif" font-size="14" lengthAdjust="spacing" textLength="82.5166" x="353.9708" y="30.1451">&#1055;&#1086;&#1089;&#1090;&#1072;&#1074;&#1097;&#1080;&#1082;</text><line style="stroke:#181818;stroke-width:0.5;" x1="329.42" x2="461.0382" y1="35.4469" y2="35.4469"/><ellipse cx="339.42" cy="49.0953" fill="none" rx="3" ry="3" style="stroke:#038048;stroke-width:1.0;"/><text fill="#000000" font-family="sans-serif" font-size="14" lengthAdjust="spacing" textLength="40.1953" x="348.42" y="52.442">id: int</text><ellipse cx="339.42" cy="65.3922" fill="none" rx="3" ry="3" style="stroke:#038048;stroke-width:1.0;"/><text fill="#000000" font-family="sans-serif" font-size="14" lengthAdjust="spacing" textLength="105.916" x="348.42" y="68.7389">&#1085;&#1072;&#1079;&#1074;&#1072;&#1085;&#1080;&#1077;: text</text><ellipse cx="339.42" cy="81.6891" fill="none" rx="3" ry="3" style="stroke:#038048;stroke-width:1.0;"/><text fill="#000000" font-family="sans-serif" font-size="14" lengthAdjust="spacing" textLength="107.6182" x="348.42" y="85.0357">&#1082;&#1086;&#1085;&#1090;&#1072;&#1082;&#1090;&#1099;: text</text></g><g id="elem_Delivery"><rect fill="#F1F1F1" height="77.1875" style="stroke:#181818;stroke-width:0.5;" width="133.6182" x="34.42" y="380.57"/><text fill="#000000" font-family="sans-serif" font-size="14" lengthAdjust="spacing" textLength="52.8623" x="74.7979" y="395.5651">&#1050;&#1091;&#1088;&#1100;&#1077;&#1088;</text><line style="stroke:#181818;stroke-width:0.5;" x1="35.42" x2="167.0382" y1="400.8669" y2="400.8669"/><ellipse cx="45.42" cy="414.5153" fill="none" rx="3" ry="3" style="stroke:#038048;stroke-width:1.0;"/><text fill="#000000" font-family="sans-serif" font-size="14" lengthAdjust="spacing" textLength="40.1953" x="54.42" y="417.862">id: int</text><ellipse cx="45.42" cy="430.8122" fill="none" rx="3" ry="3" style="stroke:#038048;stroke-width:1.0;"/><text fill="#000000" font-family="sans-serif" font-size="14" lengthAdjust="spacing" textLength="65.126" x="54.42" y="434.1589">&#1080;&#1084;&#1103;: text</text><ellipse cx="45.42" cy="447.1091" fill="none" rx="3" ry="3" style="stroke:#038048;stroke-width:1.0;"/><text fill="#000000" font-family="sans-serif" font-size="14" lengthAdjust="spacing" textLength="107.6182" x="54.42" y="450.4557">&#1082;&#1086;&#1085;&#1090;&#1072;&#1082;&#1090;&#1099;: text</text></g><g id="elem_Stock"><rect fill="#F1F1F1" height="109.7813" style="stroke:#181818;stroke-width:0.5;" width="188.4492" x="301" y="364.27"/><text fill="#000000" font-family="sans-serif" font-size="14" lengthAdjust="spacing" textLength="45.4385" x="372.5054" y="379.2651">&#1057;&#1082;&#1083;&#1072;&#1076;</text><line style="stroke:#181818;stroke-width:0.5;" x1="302" x2="488.4492" y1="384.5669" y2="384.5669"/><ellipse cx="312" cy="398.2153" fill="none" rx="3" ry="3" style="stroke:#038048;stroke-width:1.0;"/><text fill="#000000" font-family="sans-serif" font-size="14" lengthAdjust="spacing" textLength="40.1953" x="321" y="401.562">id: int</text><ellipse cx="312" cy="414.5122" fill="none" rx="3" ry="3" style="stroke:#038048;stroke-width:1.0;"/><text fill="#000000" font-family="sans-serif" font-size="14" lengthAdjust="spacing" textLength="105.916" x="321" y="417.8589">&#1085;&#1072;&#1079;&#1074;&#1072;&#1085;&#1080;&#1077;: text</text><ellipse cx="312" cy="430.8091" fill="none" rx="3" ry="3" style="stroke:#038048;stroke-width:1.0;"/><text fill="#000000" font-family="sans-serif" font-size="14" lengthAdjust="spacing" textLength="107.6182" x="321" y="434.1557">&#1082;&#1086;&#1085;&#1090;&#1072;&#1082;&#1090;&#1099;: text</text><ellipse cx="312" cy="447.1059" fill="#84BE84" rx="3" ry="3" style="stroke:#038048;stroke-width:1.0;"/><text fill="#000000" font-family="sans-serif" font-size="14" lengthAdjust="spacing" textLength="144.6963" x="321" y="450.4526">addProduct(Product)</text><ellipse cx="312" cy="463.4028" fill="#84BE84" rx="3" ry="3" style="stroke:#038048;stroke-width:1.0;"/><text fill="#000000" font-family="sans-serif" font-size="14" lengthAdjust="spacing" textLength="162.4492" x="321" y="466.7495">deleteProduct(Product)</text></g><!--link Customer to Order--><g id="link_Customer_Order"><path codeLine="6" d="M101.22,100.69 C101.22,124.1 101.22,146.71 101.22,171.19 " fill="none" id="Customer-to-Order" style="stroke:#181818;stroke-width:1.0;"/><polygon fill="#181818" points="101.22,177.19,105.22,168.19,101.22,172.19,97.22,168.19,101.22,177.19" style="stroke:#181818;stroke-width:1.0;"/><text fill="#000000" font-family="sans-serif" font-size="13" lengthAdjust="spacing" textLength="117.6157" x="102.22" y="143.5569">&#1076;&#1077;&#1083;&#1072;&#1077;&#1090; &gt; 310000</text><text fill="#000000" font-family="sans-serif" font-size="13" lengthAdjust="spacing" textLength="8.271" x="92.6755" y="120.423">1</text><text fill="#000000" font-family="sans-serif" font-size="13" lengthAdjust="spacing" textLength="23.0356" x="76.7483" y="166.2332">0..*</text></g><!--reverse link Order to Product--><g id="link_Order_Product"><path codeLine="7" d="M207.87,232.38 C244.46,232.38 274.03,232.38 309.71,232.38 " fill="none" id="Order-backto-Product" style="stroke:#181818;stroke-width:1.0;"/><polygon fill="none" points="195.87,232.38,201.87,236.38,207.87,232.38,201.87,228.38,195.87,232.38" style="stroke:#181818;stroke-width:1.0;"/><polygon fill="#000000" points="222.66,220.9464,213.6149,218.0075,213.6149,223.8853,222.66,220.9464" style="stroke:#000000;stroke-width:1.0;"/><text fill="#000000" font-family="sans-serif" font-size="13" lengthAdjust="spacing" textLength="65.9839" x="226.66" y="225.4469">&#1074;&#1082;&#1083;&#1102;&#1095;&#1072;&#1077;&#1090;</text><text fill="#000000" font-family="sans-serif" font-size="13" lengthAdjust="spacing" textLength="23.0356" x="203.3346" y="244.9789">0..*</text><text fill="#000000" font-family="sans-serif" font-size="13" lengthAdjust="spacing" textLength="23.0356" x="278.9803" y="245.0497">1..*</text></g><!--link Provider to Product--><g id="link_Provider_Product"><path codeLine="8" d="M395.22,92.64 C395.22,119.8 395.22,150.54 395.22,179.39 " fill="none" id="Provider-to-Product" style="stroke:#181818;stroke-width:1.0;"/><polygon fill="#181818" points="395.22,185.39,399.22,176.39,395.22,180.39,391.22,176.39,395.22,185.39" style="stroke:#181818;stroke-width:1.0;"/><polygon fill="#000000" points="400.22,144.0564,403.1589,135.0113,397.2811,135.0113,400.22,144.0564" style="stroke:#000000;stroke-width:1.0;"/><text fill="#000000" font-family="sans-serif" font-size="13" lengthAdjust="spacing" textLength="48.8325" x="409.22" y="143.5569">&#1076;&#1077;&#1083;&#1072;&#1077;&#1090;</text><text fill="#000000" font-family="sans-serif" font-size="13" lengthAdjust="spacing" textLength="8.271" x="386.5784" y="112.4023">1</text><text fill="#000000" font-family="sans-serif" font-size="13" lengthAdjust="spacing" textLength="23.0356" x="370.5324" y="174.4631">0..*</text></g><!--link Product to Product--><g id="link_Product_Product"><path codeLine="9" d="M492.9184,216.1003 C512.8584,217.5503 515.57,222.39 515.57,232.38 C515.57,242.36 506.8744,247.6478 486.9344,249.0878 " fill="none" id="Product-Product" style="stroke:#181818;stroke-width:1.0;"/><polygon fill="#181818" points="480.95,215.23,486.6441,219.6546,492.9184,216.1003,487.2243,211.6757,480.95,215.23" style="stroke:#181818;stroke-width:1.0;"/><polygon fill="#181818" points="480.95,249.52,490.2147,252.8613,485.937,249.1599,489.6385,244.8821,480.95,249.52" style="stroke:#181818;stroke-width:1.0;"/><text fill="#000000" font-family="sans-serif" font-size="13" lengthAdjust="spacing" textLength="53.7964" x="521.57" y="236.9469">&#1089;&#1086;&#1089;&#1090;&#1086;&#1080;&#1090;</text><text fill="#000000" font-family="sans-serif" font-size="13" lengthAdjust="spacing" textLength="8.271" x="488.6721" y="210.1841">1</text><text fill="#000000" font-family="sans-serif" font-size="13" lengthAdjust="spacing" textLength="23.0356" x="488.6988" y="247.3602">1..*</text></g><!--reverse link Order to Delivery--><g id="link_Order_Delivery"><path codeLine="10" d="M101.22,293.32 C101.22,323.15 101.22,353.48 101.22,380.29 " fill="none" id="Order-backto-Delivery" style="stroke:#181818;stroke-width:1.0;"/><polygon fill="#181818" points="101.22,287.32,97.22,296.32,101.22,292.32,105.22,296.32,101.22,287.32" style="stroke:#181818;stroke-width:1.0;"/><polygon fill="#000000" points="106.22,320.8364,103.2811,329.8815,109.1589,329.8815,106.22,320.8364" style="stroke:#000000;stroke-width:1.0;"/><text fill="#000000" font-family="sans-serif" font-size="13" lengthAdjust="spacing" textLength="38.1431" x="115.22" y="330.3369">&#1074;&#1077;&#1079;&#1077;&#1090;</text><text fill="#000000" font-family="sans-serif" font-size="13" lengthAdjust="spacing" textLength="23.0356" x="76.7483" y="307.3954">1..*</text><text fill="#000000" font-family="sans-serif" font-size="13" lengthAdjust="spacing" textLength="8.271" x="92.5542" y="369.3978">1</text></g><!--reverse link Product to Stock--><g id="link_Product_Stock"><path codeLine="11" d="M395.22,285.53 C395.22,311.18 395.22,337.25 395.22,364.08 " fill="none" id="Product-backto-Stock" style="stroke:#181818;stroke-width:1.0;"/><polygon fill="#181818" points="395.22,279.53,391.22,288.53,395.22,284.53,399.22,288.53,395.22,279.53" style="stroke:#181818;stroke-width:1.0;"/><polygon fill="#000000" points="400.22,320.8364,397.2811,329.8815,403.1589,329.8815,400.22,320.8364" style="stroke:#000000;stroke-width:1.0;"/><text fill="#000000" font-family="sans-serif" font-size="13" lengthAdjust="spacing" textLength="48.4326" x="409.22" y="330.3369">&#1093;&#1088;&#1072;&#1085;&#1080;&#1090;</text><text fill="#000000" font-family="sans-serif" font-size="13" lengthAdjust="spacing" textLength="23.0356" x="370.6042" y="299.2911">0..*</text><text fill="#000000" font-family="sans-serif" font-size="13" lengthAdjust="spacing" textLength="23.0356" x="370.7483" y="353.1373">1..*</text></g><!--SRC=[ROxDIiD058NtynIJ0K4BITfjIRlHfQ8Whaiw6PDfqqp8J8AwiW5nvxE861IBVOOxR-HCVb2AktllkTyvnw4Yk-Nnx2WLORHOIP4TaqIfN4vzFw89VqZuMbHUp5LIBZqk_9kBSryK4IlaWjs5cpnbqkyyF4kJ4uGSdj6qZ1ZkxsAvObH9v8GnmxFXQXQ4Jakfn8OLc4m8Tjqv9cFF6n5yQHFm5CCxDB23LsXqZUVOCftK_mdNaErqLOYefCeoR_05E_sYdmSE3M9F1MwPkssa4Ih-JrJmYvYlKTliC4TlOQ-tkeOzVEfww3Nf4ph_CvRoYXNtNQq6FWxTnt_Us_5Q2Rgsxa_wqPJvjjuu-040]--></g></svg>